<svg xmlns="http://www.w3.org/2000/svg" width="1280" height="200" >
<rect width="1280" height="200" fill="#000040" />
<path d="M0,0 l 35,35 " stroke="#000040" fill="none" stroke-width="3" stroke-dasharray="49.49747468305833" stroke-dashoffset="0">
	<animate id="trace1" attributeName="stroke-dashoffset" begin="0.4174199725030564s;trace1.begin+8" dur="0.3299831645537222s" values="49.49747468305833;0" />
	<set attributeName="stroke" begin="trace1.begin;via1.end" to="#203080" />
	<animate attributeName="stroke" begin="via1.begin" dur="0.2s" values="white;#203080" />
	<animate id="fade1" attributeName="stroke" begin="via1.end+4s" dur="0.5s" values="#203080;#000040" />
	<set attributeName="stroke" begin="fade1.end" to="#000040" />
</path>
<circle cx="41" cy="41" r="6" fill="none" stroke-width="4" stroke="#000040">
	<animate id="via1" attributeName="stroke" begin="trace1.end" dur="0.2s" values="white;#203080" />
	<set attributeName="stroke" begin="via1.end" to="#203080" />
	<animate attributeName="stroke" begin="via1.end+4s" dur="0.5s" values="#203080;#000040" />
	<set attributeName="stroke" begin="fade1.end" to="#000040" />
</circle>
<path d="M0,110 l 75,0 l 40,-40 l 0,-25 " stroke="#000040" fill="none" stroke-width="3" stroke-dasharray="156.5685424949238" stroke-dashoffset="0">
	<animate id="trace2" attributeName="stroke-dashoffset" begin="0.5514142517376633s;trace2.begin+8" dur="1.043790283299492s" values="156.5685424949238;0" />
	<set attributeName="stroke" begin="trace2.begin;via2.end" to="#203080" />
	<animate attributeName="stroke" begin="via2.begin" dur="0.2s" values="white;#203080" />
	<animate id="fade2" attributeName="stroke" begin="via2.end+4s" dur="0.5s" values="#203080;#000040" />
	<set attributeName="stroke" begin="fade2.end" to="#000040" />
</path>
<circle cx="115" cy="39" r="6" fill="none" stroke-width="4" stroke="#000040">
	<animate id="via2" attributeName="stroke" begin="trace2.end" dur="0.2s" values="white;#203080" />
	<set attributeName="stroke" begin="via2.end" to="#203080" />
	<animate attributeName="stroke" begin="via2.end+4s" dur="0.5s" values="#203080;#000040" />
	<set attributeName="stroke" begin="fade2.end" to="#000040" />
</circle>
<path d="M0,140 l 120,0 " stroke="#000040" fill="none" stroke-width="3" stroke-dasharray="120.0" stroke-dashoffset="0">
	<animate id="trace3" attributeName="stroke-dashoffset" begin="0.600721443699304s;trace3.begin+8" dur="0.8s" values="120.0;0" />
	<set attributeName="stroke" begin="trace3.begin;via3.end" to="#203080" />
	<animate attributeName="stroke" begin="via3.begin" dur="0.2s" values="white;#203080" />
	<animate id="fade3" attributeName="stroke" begin="via3.end+4s" dur="0.5s" values="#203080;#000040" />
	<set attributeName="stroke" begin="fade3.end" to="#000040" />
</path>
<circle cx="126" cy="140" r="6" fill="none" stroke-width="4" stroke="#000040">
	<animate id="via3" attributeName="stroke" begin="trace3.end" dur="0.2s" values="white;#203080" />
	<set attributeName="stroke" begin="via3.end" to="#203080" />
	<animate attributeName="stroke" begin="via3.end+4s" dur="0.5s" values="#203080;#000040" />
	<set attributeName="stroke" begin="fade3.end" to="#000040" />
</circle>
<path d="M0,170 l 120,0 " stroke="#000040" fill="none" stroke-width="3" stroke-dasharray="120.0" stroke-dashoffset="0">
	<animate id="trace4" attributeName="stroke-dashoffset" begin="0.600721443699304s;trace4.begin+8" dur="0.8s" values="120.0;0" />
	<set attributeName="stroke" begin="trace4.begin;via4.end" to="#203080" />
	<animate attributeName="stroke" begin="via4.begin" dur="0.2s" values="white;#203080" />
	<animate id="fade4" attributeName="stroke" begin="via4.end+4s" dur="0.5s" values="#203080;#000040" />
	<set attributeName="stroke" begin="fade4.end" to="#000040" />
</path>
<circle cx="126" cy="170" r="6" fill="none" stroke-width="4" stroke="#000040">
	<animate id="via4" attributeName="stroke" begin="trace4.end" dur="0.2s" values="white;#203080" />
	<set attributeName="stroke" begin="via4.end" to="#203080" />
	<animate attributeName="stroke" begin="via4.end+4s" dur="0.5s" values="#203080;#000040" />
	<set attributeName="stroke" begin="fade4.end" to="#000040" />
</circle>
<path d="M175,200 l 0,-75 " stroke="#000040" fill="none" stroke-width="3" stroke-dasharray="75.0" stroke-dashoffset="0">
	<animate id="trace5" attributeName="stroke-dashoffset" begin="0.8465074152724711s;trace5.begin+8" dur="0.5s" values="75.0;0" />
	<set attributeName="stroke" begin="trace5.begin;via5.end" to="#203080" />
	<animate attributeName="stroke" begin="via5.begin" dur="0.2s" values="white;#203080" />
	<animate id="fade5" attributeName="stroke" begin="via5.end+4s" dur="0.5s" values="#203080;#000040" />
	<set attributeName="stroke" begin="fade5.end" to="#000040" />
</path>
<circle cx="175" cy="119" r="6" fill="none" stroke-width="4" stroke="#000040">
	<animate id="via5" attributeName="stroke" begin="trace5.end" dur="0.2s" values="white;#203080" />
	<set attributeName="stroke" begin="via5.end" to="#203080" />
	<animate attributeName="stroke" begin="via5.end+4s" dur="0.5s" values="#203080;#000040" />
	<set attributeName="stroke" begin="fade5.end" to="#000040" />
</circle>
<path d="M220,200 l 0,-50 l 75,-75 l 0,-30 " stroke="#000040" fill="none" stroke-width="3" stroke-dasharray="186.06601717798213" stroke-dashoffset="0">
	<animate id="trace6" attributeName="stroke-dashoffset" begin="0.5266108819512737s;trace6.begin+8" dur="1.240440114519881s" values="186.06601717798213;0" />
	<set attributeName="stroke" begin="trace6.begin;via6.end" to="#203080" />
	<animate attributeName="stroke" begin="via6.begin" dur="0.2s" values="white;#203080" />
	<animate id="fade6" attributeName="stroke" begin="via6.end+4s" dur="0.5s" values="#203080;#000040" />
	<set attributeName="stroke" begin="fade6.end" to="#000040" />
</path>
<circle cx="295" cy="39" r="6" fill="none" stroke-width="4" stroke="#000040">
	<animate id="via6" attributeName="stroke" begin="trace6.end" dur="0.2s" values="white;#203080" />
	<set attributeName="stroke" begin="via6.end" to="#203080" />
	<animate attributeName="stroke" begin="via6.end+4s" dur="0.5s" values="#203080;#000040" />
	<set attributeName="stroke" begin="fade6.end" to="#000040" />
</circle>
<path d="M260,200 l 0,-40 l 25,-25 l 40,0 l 25,25 l 0,40 " stroke="#000040" fill="none" stroke-width="3" stroke-dasharray="190.71067811865476" stroke-dashoffset="0">
	<animate id="trace7" attributeName="stroke-dashoffset" begin="0.18068862296915011s;trace7.begin+8" dur="1.2714045207910316s" values="190.71067811865476;0" />
	<set attributeName="stroke" begin="trace7.begin;via7.end" to="#203080" />
	<animate attributeName="stroke" begin="via7.begin" dur="0.2s" values="white;#203080" />
	<animate id="fade7" attributeName="stroke" begin="via7.end+4s" dur="0.5s" values="#203080;#000040" />
	<set attributeName="stroke" begin="fade7.end" to="#000040" />
</path>
<circle cx="350" cy="207.2" r="6" fill="none" stroke-width="4" stroke="#000040">
	<animate id="via7" attributeName="stroke" begin="trace7.end" dur="0.2s" values="white;#203080" />
	<set attributeName="stroke" begin="via7.end" to="#203080" />
	<animate attributeName="stroke" begin="via7.end+4s" dur="0.5s" values="#203080;#000040" />
	<set attributeName="stroke" begin="fade7.end" to="#000040" />
</circle>
<path d="M200,0 l 0,40 l -20,20 " stroke="#000040" fill="none" stroke-width="3" stroke-dasharray="68.2842712474619" stroke-dashoffset="0">
	<animate id="trace8" attributeName="stroke-dashoffset" begin="0.19217013544628514s;trace8.begin+8" dur="0.45522847498307933s" values="68.2842712474619;0" />
	<set attributeName="stroke" begin="trace8.begin;via8.end" to="#203080" />
	<animate attributeName="stroke" begin="via8.begin" dur="0.2s" values="white;#203080" />
	<animate id="fade8" attributeName="stroke" begin="via8.end+4s" dur="0.5s" values="#203080;#000040" />
	<set attributeName="stroke" begin="fade8.end" to="#000040" />
</path>
<circle cx="174" cy="66" r="6" fill="none" stroke-width="4" stroke="#000040">
	<animate id="via8" attributeName="stroke" begin="trace8.end" dur="0.2s" values="white;#203080" />
	<set attributeName="stroke" begin="via8.end" to="#203080" />
	<animate attributeName="stroke" begin="via8.end+4s" dur="0.5s" values="#203080;#000040" />
	<set attributeName="stroke" begin="fade8.end" to="#000040" />
</circle>
<path d="M200,0 l 0,40 l 20,20 " stroke="#000040" fill="none" stroke-width="3" stroke-dasharray="68.2842712474619" stroke-dashoffset="0">
	<animate id="trace9" attributeName="stroke-dashoffset" begin="0.19217013544628514s;trace9.begin+8" dur="0.45522847498307933s" values="68.2842712474619;0" />
	<set attributeName="stroke" begin="trace9.begin;via9.end" to="#203080" />
	<animate attributeName="stroke" begin="via9.begin" dur="0.2s" values="white;#203080" />
	<animate id="fade9" attributeName="stroke" begin="via9.end+4s" dur="0.5s" values="#203080;#000040" />
	<set attributeName="stroke" begin="fade9.end" to="#000040" />
</path>
<circle cx="226" cy="66" r="6" fill="none" stroke-width="4" stroke="#000040">
	<animate id="via9" attributeName="stroke" begin="trace9.end" dur="0.2s" values="white;#203080" />
	<set attributeName="stroke" begin="via9.end" to="#203080" />
	<animate attributeName="stroke" begin="via9.end+4s" dur="0.5s" values="#203080;#000040" />
	<set attributeName="stroke" begin="fade9.end" to="#000040" />
</circle>
<path d="M390,200 l 0,-115 l -40,-40 " stroke="#000040" fill="none" stroke-width="3" stroke-dasharray="171.5685424949238" stroke-dashoffset="0">
	<animate id="trace10" attributeName="stroke-dashoffset" begin="0.07869482746986034s;trace10.begin+8" dur="1.143790283299492s" values="171.5685424949238;0" />
	<set attributeName="stroke" begin="trace10.begin;via10.end" to="#203080" />
	<animate attributeName="stroke" begin="via10.begin" dur="0.2s" values="white;#203080" />
	<animate id="fade10" attributeName="stroke" begin="via10.end+4s" dur="0.5s" values="#203080;#000040" />
	<set attributeName="stroke" begin="fade10.end" to="#000040" />
</path>
<circle cx="344" cy="39" r="6" fill="none" stroke-width="4" stroke="#000040">
	<animate id="via10" attributeName="stroke" begin="trace10.end" dur="0.2s" values="white;#203080" />
	<set attributeName="stroke" begin="via10.end" to="#203080" />
	<animate attributeName="stroke" begin="via10.end+4s" dur="0.5s" values="#203080;#000040" />
	<set attributeName="stroke" begin="fade10.end" to="#000040" />
</circle>
<path d="M390,200 l 0,-90 l -40,0 " stroke="#000040" fill="none" stroke-width="3" stroke-dasharray="130.0" stroke-dashoffset="0">
	<animate id="trace11" attributeName="stroke-dashoffset" begin="0.07869482746986034s;trace11.begin+8" dur="0.8666666666666667s" values="130.0;0" />
	<set attributeName="stroke" begin="trace11.begin;via11.end" to="#203080" />
	<animate attributeName="stroke" begin="via11.begin" dur="0.2s" values="white;#203080" />
	<animate id="fade11" attributeName="stroke" begin="via11.end+4s" dur="0.5s" values="#203080;#000040" />
	<set attributeName="stroke" begin="fade11.end" to="#000040" />
</path>
<circle cx="344" cy="110" r="6" fill="none" stroke-width="4" stroke="#000040">
	<animate id="via11" attributeName="stroke" begin="trace11.end" dur="0.2s" values="white;#203080" />
	<set attributeName="stroke" begin="via11.end" to="#203080" />
	<animate attributeName="stroke" begin="via11.end+4s" dur="0.5s" values="#203080;#000040" />
	<set attributeName="stroke" begin="fade11.end" to="#000040" />
</circle>
<path d="M430,0 l 0,40 l -20,0 " stroke="#000040" fill="none" stroke-width="3" stroke-dasharray="60.0" stroke-dashoffset="0">
	<animate id="trace12" attributeName="stroke-dashoffset" begin="0.1624025379809042s;trace12.begin+8" dur="0.4s" values="60.0;0" />
	<set attributeName="stroke" begin="trace12.begin;via12.end" to="#203080" />
	<animate attributeName="stroke" begin="via12.begin" dur="0.2s" values="white;#203080" />
	<animate id="fade12" attributeName="stroke" begin="via12.end+4s" dur="0.5s" values="#203080;#000040" />
	<set attributeName="stroke" begin="fade12.end" to="#000040" />
</path>
<circle cx="404" cy="40" r="6" fill="none" stroke-width="4" stroke="#000040">
	<animate id="via12" attributeName="stroke" begin="trace12.end" dur="0.2s" values="white;#203080" />
	<set attributeName="stroke" begin="via12.end" to="#203080" />
	<animate attributeName="stroke" begin="via12.end+4s" dur="0.5s" values="#203080;#000040" />
	<set attributeName="stroke" begin="fade12.end" to="#000040" />
</circle>
<path d="M430,0 l 0,110 l 20,0 " stroke="#000040" fill="none" stroke-width="3" stroke-dasharray="130.0" stroke-dashoffset="0">
	<animate id="trace13" attributeName="stroke-dashoffset" begin="0.1624025379809042s;trace13.begin+8" dur="0.8666666666666667s" values="130.0;0" />
	<set attributeName="stroke" begin="trace13.begin;via13.end" to="#203080" />
	<animate attributeName="stroke" begin="via13.begin" dur="0.2s" values="white;#203080" />
	<animate id="fade13" attributeName="stroke" begin="via13.end+4s" dur="0.5s" values="#203080;#000040" />
	<set attributeName="stroke" begin="fade13.end" to="#000040" />
</path>
<circle cx="456" cy="110" r="6" fill="none" stroke-width="4" stroke="#000040">
	<animate id="via13" attributeName="stroke" begin="trace13.end" dur="0.2s" values="white;#203080" />
	<set attributeName="stroke" begin="via13.end" to="#203080" />
	<animate attributeName="stroke" begin="via13.end+4s" dur="0.5s" values="#203080;#000040" />
	<set attributeName="stroke" begin="fade13.end" to="#000040" />
</circle>
<path d="M430,0 l 0,170 l 20,0 " stroke="#000040" fill="none" stroke-width="3" stroke-dasharray="190.0" stroke-dashoffset="0">
	<animate id="trace14" attributeName="stroke-dashoffset" begin="0.1624025379809042s;trace14.begin+8" dur="1.2666666666666666s" values="190.0;0" />
	<set attributeName="stroke" begin="trace14.begin;via14.end" to="#203080" />
	<animate attributeName="stroke" begin="via14.begin" dur="0.2s" values="white;#203080" />
	<animate id="fade14" attributeName="stroke" begin="via14.end+4s" dur="0.5s" values="#203080;#000040" />
	<set attributeName="stroke" begin="fade14.end" to="#000040" />
</path>
<circle cx="456" cy="170" r="6" fill="none" stroke-width="4" stroke="#000040">
	<animate id="via14" attributeName="stroke" begin="trace14.end" dur="0.2s" values="white;#203080" />
	<set attributeName="stroke" begin="via14.end" to="#203080" />
	<animate attributeName="stroke" begin="via14.end+4s" dur="0.5s" values="#203080;#000040" />
	<set attributeName="stroke" begin="fade14.end" to="#000040" />
</circle>
<path d="M1280,200 l -35,-35 " stroke="#000040" fill="none" stroke-width="3" stroke-dasharray="49.49747468305833" stroke-dashoffset="0">
	<animate id="trace15" attributeName="stroke-dashoffset" begin="0.05664279803838401s;trace15.begin+8" dur="0.3299831645537222s" values="49.49747468305833;0" />
	<set attributeName="stroke" begin="trace15.begin;via15.end" to="#203080" />
	<animate attributeName="stroke" begin="via15.begin" dur="0.2s" values="white;#203080" />
	<animate id="fade15" attributeName="stroke" begin="via15.end+4s" dur="0.5s" values="#203080;#000040" />
	<set attributeName="stroke" begin="fade15.end" to="#000040" />
</path>
<circle cx="1239" cy="159" r="6" fill="none" stroke-width="4" stroke="#000040">
	<animate id="via15" attributeName="stroke" begin="trace15.end" dur="0.2s" values="white;#203080" />
	<set attributeName="stroke" begin="via15.end" to="#203080" />
	<animate attributeName="stroke" begin="via15.end+4s" dur="0.5s" values="#203080;#000040" />
	<set attributeName="stroke" begin="fade15.end" to="#000040" />
</circle>
<path d="M1280,90 l -75,0 l -40,40 l 0,25 " stroke="#000040" fill="none" stroke-width="3" stroke-dasharray="156.5685424949238" stroke-dashoffset="0">
	<animate id="trace16" attributeName="stroke-dashoffset" begin="0.7229496890573478s;trace16.begin+8" dur="1.043790283299492s" values="156.5685424949238;0" />
	<set attributeName="stroke" begin="trace16.begin;via16.end" to="#203080" />
	<animate attributeName="stroke" begin="via16.begin" dur="0.2s" values="white;#203080" />
	<animate id="fade16" attributeName="stroke" begin="via16.end+4s" dur="0.5s" values="#203080;#000040" />
	<set attributeName="stroke" begin="fade16.end" to="#000040" />
</path>
<circle cx="1165" cy="161" r="6" fill="none" stroke-width="4" stroke="#000040">
	<animate id="via16" attributeName="stroke" begin="trace16.end" dur="0.2s" values="white;#203080" />
	<set attributeName="stroke" begin="via16.end" to="#203080" />
	<animate attributeName="stroke" begin="via16.end+4s" dur="0.5s" values="#203080;#000040" />
	<set attributeName="stroke" begin="fade16.end" to="#000040" />
</circle>
<path d="M1280,60 l -120,0 " stroke="#000040" fill="none" stroke-width="3" stroke-dasharray="120.0" stroke-dashoffset="0">
	<animate id="trace17" attributeName="stroke-dashoffset" begin="0.206284472289037s;trace17.begin+8" dur="0.8s" values="120.0;0" />
	<set attributeName="stroke" begin="trace17.begin;via17.end" to="#203080" />
	<animate attributeName="stroke" begin="via17.begin" dur="0.2s" values="white;#203080" />
	<animate id="fade17" attributeName="stroke" begin="via17.end+4s" dur="0.5s" values="#203080;#000040" />
	<set attributeName="stroke" begin="fade17.end" to="#000040" />
</path>
<circle cx="1154" cy="60" r="6" fill="none" stroke-width="4" stroke="#000040">
	<animate id="via17" attributeName="stroke" begin="trace17.end" dur="0.2s" values="white;#203080" />
	<set attributeName="stroke" begin="via17.end" to="#203080" />
	<animate attributeName="stroke" begin="via17.end+4s" dur="0.5s" values="#203080;#000040" />
	<set attributeName="stroke" begin="fade17.end" to="#000040" />
</circle>
<path d="M1280,30 l -120,0 " stroke="#000040" fill="none" stroke-width="3" stroke-dasharray="120.0" stroke-dashoffset="0">
	<animate id="trace18" attributeName="stroke-dashoffset" begin="0.206284472289037s;trace18.begin+8" dur="0.8s" values="120.0;0" />
	<set attributeName="stroke" begin="trace18.begin;via18.end" to="#203080" />
	<animate attributeName="stroke" begin="via18.begin" dur="0.2s" values="white;#203080" />
	<animate id="fade18" attributeName="stroke" begin="via18.end+4s" dur="0.5s" values="#203080;#000040" />
	<set attributeName="stroke" begin="fade18.end" to="#000040" />
</path>
<circle cx="1154" cy="30" r="6" fill="none" stroke-width="4" stroke="#000040">
	<animate id="via18" attributeName="stroke" begin="trace18.end" dur="0.2s" values="white;#203080" />
	<set attributeName="stroke" begin="via18.end" to="#203080" />
	<animate attributeName="stroke" begin="via18.end+4s" dur="0.5s" values="#203080;#000040" />
	<set attributeName="stroke" begin="fade18.end" to="#000040" />
</circle>
<path d="M1105,0 l 0,75 " stroke="#000040" fill="none" stroke-width="3" stroke-dasharray="75.0" stroke-dashoffset="0">
	<animate id="trace19" attributeName="stroke-dashoffset" begin="0.17307206190631597s;trace19.begin+8" dur="0.5s" values="75.0;0" />
	<set attributeName="stroke" begin="trace19.begin;via19.end" to="#203080" />
	<animate attributeName="stroke" begin="via19.begin" dur="0.2s" values="white;#203080" />
	<animate id="fade19" attributeName="stroke" begin="via19.end+4s" dur="0.5s" values="#203080;#000040" />
	<set attributeName="stroke" begin="fade19.end" to="#000040" />
</path>
<circle cx="1105" cy="81" r="6" fill="none" stroke-width="4" stroke="#000040">
	<animate id="via19" attributeName="stroke" begin="trace19.end" dur="0.2s" values="white;#203080" />
	<set attributeName="stroke" begin="via19.end" to="#203080" />
	<animate attributeName="stroke" begin="via19.end+4s" dur="0.5s" values="#203080;#000040" />
	<set attributeName="stroke" begin="fade19.end" to="#000040" />
</circle>
<path d="M1060,0 l 0,50 l -75,75 l 0,30 " stroke="#000040" fill="none" stroke-width="3" stroke-dasharray="186.06601717798213" stroke-dashoffset="0">
	<animate id="trace20" attributeName="stroke-dashoffset" begin="0.5203030031073841s;trace20.begin+8" dur="1.240440114519881s" values="186.06601717798213;0" />
	<set attributeName="stroke" begin="trace20.begin;via20.end" to="#203080" />
	<animate attributeName="stroke" begin="via20.begin" dur="0.2s" values="white;#203080" />
	<animate id="fade20" attributeName="stroke" begin="via20.end+4s" dur="0.5s" values="#203080;#000040" />
	<set attributeName="stroke" begin="fade20.end" to="#000040" />
</path>
<circle cx="985" cy="161" r="6" fill="none" stroke-width="4" stroke="#000040">
	<animate id="via20" attributeName="stroke" begin="trace20.end" dur="0.2s" values="white;#203080" />
	<set attributeName="stroke" begin="via20.end" to="#203080" />
	<animate attributeName="stroke" begin="via20.end+4s" dur="0.5s" values="#203080;#000040" />
	<set attributeName="stroke" begin="fade20.end" to="#000040" />
</circle>
<path d="M1020,0 l 0,40 l -25,25 l -40,0 l -25,-25 l 0,-40 " stroke="#000040" fill="none" stroke-width="3" stroke-dasharray="190.71067811865476" stroke-dashoffset="0">
	<animate id="trace21" attributeName="stroke-dashoffset" begin="0.2511704848339761s;trace21.begin+8" dur="1.2714045207910316s" values="190.71067811865476;0" />
	<set attributeName="stroke" begin="trace21.begin;via21.end" to="#203080" />
	<animate attributeName="stroke" begin="via21.begin" dur="0.2s" values="white;#203080" />
	<animate id="fade21" attributeName="stroke" begin="via21.end+4s" dur="0.5s" values="#203080;#000040" />
	<set attributeName="stroke" begin="fade21.end" to="#000040" />
</path>
<circle cx="930" cy="-7.199999999999999" r="6" fill="none" stroke-width="4" stroke="#000040">
	<animate id="via21" attributeName="stroke" begin="trace21.end" dur="0.2s" values="white;#203080" />
	<set attributeName="stroke" begin="via21.end" to="#203080" />
	<animate attributeName="stroke" begin="via21.end+4s" dur="0.5s" values="#203080;#000040" />
	<set attributeName="stroke" begin="fade21.end" to="#000040" />
</circle>
<path d="M1080,200 l 0,-40 l 20,-20 " stroke="#000040" fill="none" stroke-width="3" stroke-dasharray="68.2842712474619" stroke-dashoffset="0">
	<animate id="trace22" attributeName="stroke-dashoffset" begin="0.32644637011666466s;trace22.begin+8" dur="0.45522847498307933s" values="68.2842712474619;0" />
	<set attributeName="stroke" begin="trace22.begin;via22.end" to="#203080" />
	<animate attributeName="stroke" begin="via22.begin" dur="0.2s" values="white;#203080" />
	<animate id="fade22" attributeName="stroke" begin="via22.end+4s" dur="0.5s" values="#203080;#000040" />
	<set attributeName="stroke" begin="fade22.end" to="#000040" />
</path>
<circle cx="1106" cy="134" r="6" fill="none" stroke-width="4" stroke="#000040">
	<animate id="via22" attributeName="stroke" begin="trace22.end" dur="0.2s" values="white;#203080" />
	<set attributeName="stroke" begin="via22.end" to="#203080" />
	<animate attributeName="stroke" begin="via22.end+4s" dur="0.5s" values="#203080;#000040" />
	<set attributeName="stroke" begin="fade22.end" to="#000040" />
</circle>
<path d="M1080,200 l 0,-40 l -20,-20 " stroke="#000040" fill="none" stroke-width="3" stroke-dasharray="68.2842712474619" stroke-dashoffset="0">
	<animate id="trace23" attributeName="stroke-dashoffset" begin="0.32644637011666466s;trace23.begin+8" dur="0.45522847498307933s" values="68.2842712474619;0" />
	<set attributeName="stroke" begin="trace23.begin;via23.end" to="#203080" />
	<animate attributeName="stroke" begin="via23.begin" dur="0.2s" values="white;#203080" />
	<animate id="fade23" attributeName="stroke" begin="via23.end+4s" dur="0.5s" values="#203080;#000040" />
	<set attributeName="stroke" begin="fade23.end" to="#000040" />
</path>
<circle cx="1054" cy="134" r="6" fill="none" stroke-width="4" stroke="#000040">
	<animate id="via23" attributeName="stroke" begin="trace23.end" dur="0.2s" values="white;#203080" />
	<set attributeName="stroke" begin="via23.end" to="#203080" />
	<animate attributeName="stroke" begin="via23.end+4s" dur="0.5s" values="#203080;#000040" />
	<set attributeName="stroke" begin="fade23.end" to="#000040" />
</circle>
<path d="M890,0 l 0,162 l 40,0 " stroke="#000040" fill="none" stroke-width="3" stroke-dasharray="202.0" stroke-dashoffset="0">
	<animate id="trace24" attributeName="stroke-dashoffset" begin="0.8131208776544908s;trace24.begin+8" dur="1.3466666666666667s" values="202.0;0" />
	<set attributeName="stroke" begin="trace24.begin;via24.end" to="#203080" />
	<animate attributeName="stroke" begin="via24.begin" dur="0.2s" values="white;#203080" />
	<animate id="fade24" attributeName="stroke" begin="via24.end+4s" dur="0.5s" values="#203080;#000040" />
	<set attributeName="stroke" begin="fade24.end" to="#000040" />
</path>
<circle cx="936" cy="162" r="6" fill="none" stroke-width="4" stroke="#000040">
	<animate id="via24" attributeName="stroke" begin="trace24.end" dur="0.2s" values="white;#203080" />
	<set attributeName="stroke" begin="via24.end" to="#203080" />
	<animate attributeName="stroke" begin="via24.end+4s" dur="0.5s" values="#203080;#000040" />
	<set attributeName="stroke" begin="fade24.end" to="#000040" />
</circle>
<path d="M890,0 l 0,90 l 40,0 " stroke="#000040" fill="none" stroke-width="3" stroke-dasharray="130.0" stroke-dashoffset="0">
	<animate id="trace25" attributeName="stroke-dashoffset" begin="0.8131208776544908s;trace25.begin+8" dur="0.8666666666666667s" values="130.0;0" />
	<set attributeName="stroke" begin="trace25.begin;via25.end" to="#203080" />
	<animate attributeName="stroke" begin="via25.begin" dur="0.2s" values="white;#203080" />
	<animate id="fade25" attributeName="stroke" begin="via25.end+4s" dur="0.5s" values="#203080;#000040" />
	<set attributeName="stroke" begin="fade25.end" to="#000040" />
</path>
<circle cx="936" cy="90" r="6" fill="none" stroke-width="4" stroke="#000040">
	<animate id="via25" attributeName="stroke" begin="trace25.end" dur="0.2s" values="white;#203080" />
	<set attributeName="stroke" begin="via25.end" to="#203080" />
	<animate attributeName="stroke" begin="via25.end+4s" dur="0.5s" values="#203080;#000040" />
	<set attributeName="stroke" begin="fade25.end" to="#000040" />
</circle>
<path d="M850,0 l 0,110 l -20,0 " stroke="#000040" fill="none" stroke-width="3" stroke-dasharray="130.0" stroke-dashoffset="0">
	<animate id="trace26" attributeName="stroke-dashoffset" begin="0.3075087796185316s;trace26.begin+8" dur="0.8666666666666667s" values="130.0;0" />
	<set attributeName="stroke" begin="trace26.begin;via26.end" to="#203080" />
	<animate attributeName="stroke" begin="via26.begin" dur="0.2s" values="white;#203080" />
	<animate id="fade26" attributeName="stroke" begin="via26.end+4s" dur="0.5s" values="#203080;#000040" />
	<set attributeName="stroke" begin="fade26.end" to="#000040" />
</path>
<circle cx="824" cy="110" r="6" fill="none" stroke-width="4" stroke="#000040">
	<animate id="via26" attributeName="stroke" begin="trace26.end" dur="0.2s" values="white;#203080" />
	<set attributeName="stroke" begin="via26.end" to="#203080" />
	<animate attributeName="stroke" begin="via26.end+4s" dur="0.5s" values="#203080;#000040" />
	<set attributeName="stroke" begin="fade26.end" to="#000040" />
</circle>
<path d="M850,0 l 0,150 l -20,15 " stroke="#000040" fill="none" stroke-width="3" stroke-dasharray="175.0" stroke-dashoffset="0">
	<animate id="trace27" attributeName="stroke-dashoffset" begin="0.3075087796185316s;trace27.begin+8" dur="1.1666666666666667s" values="175.0;0" />
	<set attributeName="stroke" begin="trace27.begin;via27.end" to="#203080" />
	<animate attributeName="stroke" begin="via27.begin" dur="0.2s" values="white;#203080" />
	<animate id="fade27" attributeName="stroke" begin="via27.end+4s" dur="0.5s" values="#203080;#000040" />
	<set attributeName="stroke" begin="fade27.end" to="#000040" />
</path>
<circle cx="824" cy="171" r="6" fill="none" stroke-width="4" stroke="#000040">
	<animate id="via27" attributeName="stroke" begin="trace27.end" dur="0.2s" values="white;#203080" />
	<set attributeName="stroke" begin="via27.end" to="#203080" />
	<animate attributeName="stroke" begin="via27.end+4s" dur="0.5s" values="#203080;#000040" />
	<set attributeName="stroke" begin="fade27.end" to="#000040" />
</circle>
    <g
       transform="matrix(0.76,0,0,0.76,351,-69.5)"
       >
      <path
         d="m 157.59898,190.95479 q -4.48,0 -8.24,-1.28 -3.76,-1.36 -5.68,-2.96 l 1.92,-3.28 q 1.92,1.52 4.96,2.72 3.12,1.12 6.8,1.12 6.4,0 9.44,-3.52 3.04,-3.52 3.04,-11.44 v -37.76 h 4.08 v 38 q 0,5.84 -1.68,10 -1.68,4.08 -5.28,6.24 -3.52,2.16 -9.36,2.16 z"
         stroke="white" fill="white"
         id="path505" />
      <path
         d="m 204.07897,190.71479 q -5.36,0 -9.6,-2.64 -4.16,-2.72 -6.48,-7.52 -2.32,-4.88 -2.32,-11.28 0,-6.4 2.32,-11.2 2.32,-4.8 6.48,-7.52 4.24,-2.72 9.6,-2.72 5.52,0 9.68,2.72 4.16,2.72 6.48,7.52 2.32,4.8 2.32,11.2 0,6.4 -2.32,11.28 -2.32,4.8 -6.48,7.52 -4.16,2.64 -9.68,2.64 z m 0,-3.52 q 4.48,0 7.68,-2.16 3.2,-2.24 4.96,-6.24 1.84,-4.08 1.84,-9.52 0,-5.44 -1.84,-9.44 -1.76,-4.08 -4.96,-6.24 -3.2,-2.24 -7.68,-2.24 -4.4,0 -7.68,2.24 -3.2,2.16 -4.96,6.24 -1.76,4 -1.76,9.44 0,5.36 1.76,9.44 1.76,4.08 4.96,6.32 3.28,2.16 7.68,2.16 z"
         stroke="white" fill="white"
         id="path507" />
      <path
         d="m 251.91894,190.63479 q -6.88,0 -11.36,-2.48 -4.4,-2.56 -6.56,-7.44 -2.16,-4.88 -2.16,-11.92 0,-5.92 2.16,-10.64 2.24,-4.72 6.24,-7.52 4,-2.8 9.44,-2.8 5.36,0 8.88,2.4 3.6,2.4 5.44,6.72 1.84,4.32 1.84,10 0,0.72 -0.08,1.52 0,0.72 -0.08,1.36 h -29.84 q 0.24,8.72 4.16,13.04 4,4.32 12.08,4.32 3.28,0 5.92,-0.72 2.72,-0.72 4.16,-1.52 l 0.72,3.28 q -1.44,0.88 -4.56,1.68 -3.04,0.72 -6.4,0.72 z m -16,-24 h 25.92 q 0,-4.96 -1.44,-8.4 -1.44,-3.44 -4.16,-5.2 -2.72,-1.76 -6.48,-1.76 -4.32,0 -7.36,2.24 -2.96,2.16 -4.64,5.68 -1.6,3.44 -1.84,7.44 z"
         stroke="white" fill="white"
         id="path509" />
      <path
         d="m 276.23899,205.03479 q -1.68,0 -3.04,-0.32 -1.36,-0.32 -2.16,-0.72 l 0.8,-3.2 q 0.72,0.32 2,0.64 1.28,0.32 2.48,0.32 3.04,0 5.2,-0.96 2.16,-0.88 3.92,-3.2 1.76,-2.24 3.44,-6.24 -3.44,-6.24 -6.64,-13.44 -3.12,-7.28 -5.68,-14.72 -2.48,-7.52 -4,-14.4 h 3.92 q 1.12,4.56 2.48,9.28 1.44,4.72 3.12,9.6 1.76,4.88 3.92,9.84 2.16,4.96 4.64,10 2.08,-5.2 4,-11.2 1.92,-6 3.68,-12.88 1.76,-6.88 3.36,-14.64 h 3.84 q -1.52,7.36 -3.6,14.96 -2,7.6 -4.32,14.56 -2.32,6.96 -4.72,12.64 -2.08,5.04 -4.32,8.16 -2.24,3.12 -5.2,4.48 -2.88,1.44 -7.12,1.44 z"
         stroke="white" fill="white"
         id="path511" />
      <path
         d="m 343.99895,190.95479 q -5.12,0 -9.2,-1.12 -4,-1.2 -6.56,-2.72 l 1.36,-3.52 q 2.56,1.52 6.32,2.64 3.76,1.04 7.92,1.04 7.36,0 11.12,-2.72 3.76,-2.8 3.76,-8.4 0,-3.2 -1.44,-5.36 -1.44,-2.24 -4.4,-4 -2.96,-1.76 -7.68,-3.52 -5.2,-2 -8.56,-4.16 -3.36,-2.16 -5.04,-4.88 -1.6,-2.8 -1.6,-6.72 0,-4.56 2.08,-7.6 2.08,-3.12 5.92,-4.72 3.92,-1.6 9.36,-1.6 3.84,0 7.68,1.04 3.84,0.96 6.08,2.4 l -1.44,3.36 q -2.48,-1.44 -5.84,-2.32 -3.28,-0.88 -6.72,-0.88 -6.16,0 -9.6,2.56 -3.36,2.56 -3.36,7.68 0,3.12 1.44,5.28 1.44,2.08 4.48,3.76 3.04,1.68 7.76,3.6 5.04,1.92 8.4,4.08 3.36,2.08 4.96,4.88 1.68,2.8 1.68,6.88 0,4.96 -2.24,8.32 -2.16,3.28 -6.4,5.04 -4.16,1.68 -10.24,1.68 z"
         stroke="white" fill="white"
         id="path513" />
      <path
         d="m 373.11895,189.99479 v -61.28 l 3.84,-0.8 v 22.4 q 2.72,-1.04 5.6,-1.68 2.88,-0.64 5.76,-0.64 6.24,0 9.68,2.32 3.44,2.32 4.8,6.56 1.44,4.24 1.44,10.16 v 22.96 h -3.84 v -21.44 q 0,-6 -1.12,-9.76 -1.12,-3.76 -3.84,-5.52 -2.72,-1.76 -7.68,-1.76 -2,0 -4.16,0.4 -2.08,0.32 -3.92,0.88 -1.76,0.48 -2.72,0.96 v 36.24 z"
         stroke="white" fill="white"
         id="path515" />
      <path
         d="m 435.59891,190.63479 q -6.88,0 -11.36,-2.48 -4.4,-2.56 -6.56,-7.44 -2.16,-4.88 -2.16,-11.92 0,-5.92 2.16,-10.64 2.24,-4.72 6.24,-7.52 4,-2.8 9.44,-2.8 5.36,0 8.88,2.4 3.6,2.4 5.44,6.72 1.84,4.32 1.84,10 0,0.72 -0.08,1.52 0,0.72 -0.08,1.36 h -29.84 q 0.24,8.72 4.16,13.04 4,4.32 12.08,4.32 3.28,0 5.92,-0.72 2.72,-0.72 4.16,-1.52 l 0.72,3.28 q -1.44,0.88 -4.56,1.68 -3.04,0.72 -6.4,0.72 z m -16,-24 h 25.92 q 0,-4.96 -1.44,-8.4 -1.44,-3.44 -4.16,-5.2 -2.72,-1.76 -6.48,-1.76 -4.32,0 -7.36,2.24 -2.96,2.16 -4.64,5.68 -1.6,3.44 -1.84,7.44 z"
         stroke="white" fill="white"
         id="path517" />
      <path
         d="m 461.43896,204.79479 v -54.48 q 1.84,-0.72 4.08,-1.2 2.24,-0.48 4.8,-0.8 2.64,-0.32 5.44,-0.32 6.08,0 10.56,2.64 4.48,2.56 6.88,7.36 2.4,4.72 2.4,11.36 0,6.48 -2.24,11.28 -2.24,4.8 -6.4,7.44 -4.08,2.64 -9.84,2.64 -3.52,0 -6.72,-1.04 -3.12,-1.12 -5.12,-2.72 v 17.84 z m 15.44,-17.6 q 3.68,0 6.4,-1.2 2.8,-1.28 4.64,-3.6 1.84,-2.4 2.72,-5.68 0.96,-3.28 0.96,-7.36 0,-6.08 -2.08,-10 -2.08,-4 -5.84,-5.92 -3.68,-1.92 -8.64,-1.92 -2.72,0 -5.28,0.4 -2.56,0.4 -4.48,0.96 v 30.4 q 1.84,1.6 4.96,2.8 3.2,1.12 6.64,1.12 z"
         stroke="white" fill="white"
         id="path519" />
      <path
         d="m 519.99895,190.63479 q -4.96,0 -8.56,-1.36 -3.52,-1.36 -5.36,-4.16 -1.84,-2.88 -1.84,-7.2 0,-4.24 2,-6.96 2,-2.8 5.76,-4.08 3.76,-1.36 9.2,-1.36 2.32,0 4.96,0.48 2.64,0.4 4.08,0.88 v -2.88 q 0,-4.08 -1.04,-6.88 -0.96,-2.88 -3.44,-4.32 -2.4,-1.52 -6.72,-1.52 -3.12,0 -5.68,0.56 -2.56,0.56 -4,1.28 l -0.56,-3.44 q 1.84,-0.8 4.56,-1.28 2.72,-0.56 6.16,-0.56 5.2,0 8.32,1.84 3.2,1.84 4.64,5.2 1.52,3.28 1.52,7.92 v 26 q -2.48,0.72 -6.24,1.28 -3.76,0.56 -7.76,0.56 z m 0.56,-3.44 q 2.48,0 5.04,-0.24 2.56,-0.24 4.64,-0.8 v -16 q -1.52,-0.64 -3.76,-1.04 -2.24,-0.4 -5.2,-0.4 -3.92,0 -6.88,0.96 -2.88,0.88 -4.56,2.88 -1.6,2 -1.6,5.28 0,4.96 3.04,7.2 3.12,2.16 9.28,2.16 z"
         stroke="white" fill="white"
         id="path521" />
      <path
         d="m 547.59893,189.99479 v -39.12 q 2.64,-1.28 5.92,-2.08 3.36,-0.8 7.2,-0.8 1.6,0 2.96,0.16 1.44,0.16 2.64,0.4 1.2,0.24 2,0.56 l -0.8,3.28 q -1.04,-0.32 -2.96,-0.56 -1.84,-0.32 -4.24,-0.32 -2.64,0 -4.96,0.48 -2.32,0.48 -3.92,1.2 v 36.8 z"
         stroke="white" fill="white"
         id="path523" />
      <path
         d="m 593.81238,190.71479 q -6,0 -10.48,-2.56 -4.4,-2.64 -6.88,-7.36 -2.4,-4.8 -2.4,-11.44 0,-6.56 2.24,-11.36 2.24,-4.88 6.32,-7.44 4.16,-2.64 9.84,-2.64 3.52,0 6.64,1.12 3.2,1.04 5.28,2.72 v -23.04 l 3.84,-0.8 v 60.56 q -1.68,0.64 -3.92,1.2 -2.16,0.48 -4.8,0.72 -2.56,0.32 -5.68,0.32 z m 0.64,-3.52 q 3.04,0 5.68,-0.32 2.64,-0.4 4.24,-0.96 v -30.4 q -2.08,-1.76 -5.12,-2.96 -2.96,-1.2 -6.48,-1.2 -3.68,0 -6.48,1.28 -2.72,1.2 -4.56,3.6 -1.84,2.4 -2.8,5.68 -0.88,3.28 -0.88,7.44 0,5.52 1.84,9.52 1.92,4 5.52,6.16 3.68,2.16 9.04,2.16 z"
         stroke="white" fill="white"
         id="path525" />
    </g>
    <g
       transform="matrix(0.76,0,0,0.76,397,19)"
       >
      <path
         d="m 148.84698,175.46146 v -43.584 q 1.984,-0.512 4.864,-0.768 2.88,-0.32 5.76,-0.32 9.152,0 13.696,3.456 4.608,3.456 4.608,10.112 0,4.8 -2.112,7.808 -2.048,3.008 -6.336,4.416 -4.224,1.344 -10.688,1.344 h -6.528 v 17.536 z m 3.264,-20.416 h 6.272 q 4.672,0 8.256,-0.832 3.648,-0.832 5.696,-3.136 2.112,-2.304 2.112,-6.784 0,-3.712 -1.856,-6.016 -1.792,-2.368 -5.12,-3.456 -3.328,-1.152 -7.936,-1.152 -1.92,0 -4.032,0.192 -2.048,0.128 -3.392,0.384 z"
         stroke="white" fill="white"
         id="path701" />
      <path
         d="m 185.903,175.46146 v -31.296 q 2.112,-1.024 4.736,-1.664 2.688,-0.64 5.76,-0.64 1.28,0 2.368,0.128 1.152,0.128 2.112,0.32 0.96,0.192 1.6,0.448 l -0.64,2.624 q -0.832,-0.256 -2.368,-0.448 -1.472,-0.256 -3.392,-0.256 -2.112,0 -3.968,0.384 -1.856,0.384 -3.136,0.96 v 29.44 z"
         stroke="white" fill="white"
         id="path703" />
      <path
         d="m 221.78576,176.03746 q -4.288,0 -7.68,-2.112 -3.328,-2.176 -5.184,-6.016 -1.856,-3.904 -1.856,-9.024 0,-5.12 1.856,-8.96 1.856,-3.84 5.184,-6.016 3.392,-2.176 7.68,-2.176 4.416,0 7.744,2.176 3.328,2.176 5.184,6.016 1.856,3.84 1.856,8.96 0,5.12 -1.856,9.024 -1.856,3.84 -5.184,6.016 -3.328,2.112 -7.744,2.112 z m 0,-2.816 q 3.584,0 6.144,-1.728 2.56,-1.792 3.968,-4.992 1.472,-3.264 1.472,-7.616 0,-4.352 -1.472,-7.552 -1.408,-3.264 -3.968,-4.992 -2.56,-1.792 -6.144,-1.792 -3.52,0 -6.144,1.792 -2.56,1.728 -3.968,4.992 -1.408,3.2 -1.408,7.552 0,4.288 1.408,7.552 1.408,3.264 3.968,5.056 2.624,1.728 6.144,1.728 z"
         stroke="white" fill="white"
         id="path705" />
      <path
         d="m 255.44974,187.49346 q -2.56,0 -5.184,-0.512 -2.624,-0.448 -4.416,-1.216 l 0.704,-2.752 q 1.472,0.704 4.032,1.216 2.56,0.512 4.864,0.512 4.416,0 7.104,-1.088 2.688,-1.024 3.904,-3.392 1.28,-2.368 1.28,-6.336 v -2.88 q -1.664,1.216 -4.096,2.112 -2.432,0.832 -5.376,0.832 -4.224,0 -7.488,-1.792 -3.2,-1.792 -5.056,-5.312 -1.792,-3.52 -1.792,-8.64 0,-4.8 1.856,-8.448 1.92,-3.712 5.376,-5.824 3.456,-2.112 8.064,-2.112 3.52,0 6.4,0.576 2.88,0.512 5.056,1.344 v 30.464 q 0,7.04 -3.648,10.112 -3.648,3.136 -11.584,3.136 z m 2.88,-16.256 q 2.752,0 5.248,-0.832 2.56,-0.832 4.096,-2.24 v -22.4 q -1.472,-0.448 -3.712,-0.768 -2.176,-0.32 -4.672,-0.32 -3.712,0 -6.464,1.728 -2.688,1.664 -4.224,4.736 -1.472,3.072 -1.472,7.168 0,3.072 0.832,5.504 0.832,2.432 2.368,4.096 1.536,1.664 3.584,2.496 2.048,0.832 4.416,0.832 z"
         stroke="white" fill="white"
         id="path707" />
      <path
         d="m 281.94572,175.46146 v -31.296 q 2.112,-1.024 4.736,-1.664 2.688,-0.64 5.76,-0.64 1.28,0 2.368,0.128 1.152,0.128 2.112,0.32 0.96,0.192 1.6,0.448 l -0.64,2.624 q -0.832,-0.256 -2.368,-0.448 -1.472,-0.256 -3.392,-0.256 -2.112,0 -3.968,0.384 -1.856,0.384 -3.136,0.96 v 29.44 z"
         stroke="white" fill="white"
         id="path709" />
      <path
         d="m 315.20448,175.97346 q -3.968,0 -6.848,-1.088 -2.816,-1.088 -4.288,-3.328 -1.472,-2.304 -1.472,-5.76 0,-3.392 1.6,-5.568 1.6,-2.24 4.608,-3.264 3.008,-1.088 7.36,-1.088 1.856,0 3.968,0.384 2.112,0.32 3.264,0.704 v -2.304 q 0,-3.264 -0.832,-5.504 -0.768,-2.304 -2.752,-3.456 -1.92,-1.216 -5.376,-1.216 -2.496,0 -4.544,0.448 -2.048,0.448 -3.2,1.024 l -0.448,-2.752 q 1.472,-0.64 3.648,-1.024 2.176,-0.448 4.928,-0.448 4.16,0 6.656,1.472 2.56,1.472 3.712,4.16 1.216,2.624 1.216,6.336 v 20.8 q -1.984,0.576 -4.992,1.024 -3.008,0.448 -6.208,0.448 z m 0.448,-2.752 q 1.984,0 4.032,-0.192 2.048,-0.192 3.712,-0.64 v -12.8 q -1.216,-0.512 -3.008,-0.832 -1.792,-0.32 -4.16,-0.32 -3.136,0 -5.504,0.768 -2.304,0.704 -3.648,2.304 -1.28,1.6 -1.28,4.224 0,3.968 2.432,5.76 2.496,1.728 7.424,1.728 z"
         stroke="white" fill="white"
         id="path711" />
      <path
         d="m 337.28447,175.46146 v -31.68 q 1.792,-0.64 4.608,-1.28 2.88,-0.64 6.784,-0.64 3.52,0 5.76,1.024 2.24,0.96 3.584,2.816 1.024,-0.96 2.624,-1.792 1.6,-0.896 3.712,-1.472 2.112,-0.576 4.48,-0.576 4.352,0 6.848,1.536 2.56,1.536 3.648,4.608 1.088,3.072 1.088,7.744 v 19.712 h -3.008 v -18.496 q 0,-4.224 -0.768,-6.912 -0.704,-2.752 -2.624,-4.032 -1.92,-1.344 -5.504,-1.344 -2.112,0 -3.84,0.512 -1.728,0.448 -3.072,1.216 -1.344,0.768 -2.368,1.664 0.64,1.536 0.896,3.456 0.256,1.92 0.256,4.16 v 19.776 h -3.072 v -18.496 q 0,-4.288 -0.704,-6.976 -0.704,-2.688 -2.688,-3.968 -1.92,-1.344 -5.568,-1.344 -1.728,0 -3.392,0.192 -1.664,0.192 -2.88,0.512 -1.216,0.256 -1.728,0.512 v 29.568 z"
         stroke="white" fill="white"
         id="path713" />
      <path
         d="m 391.42851,175.46146 v -31.68 q 1.792,-0.64 4.608,-1.28 2.88,-0.64 6.784,-0.64 3.52,0 5.76,1.024 2.24,0.96 3.584,2.816 1.024,-0.96 2.624,-1.792 1.6,-0.896 3.712,-1.472 2.112,-0.576 4.48,-0.576 4.352,0 6.848,1.536 2.56,1.536 3.648,4.608 1.088,3.072 1.088,7.744 v 19.712 h -3.008 v -18.496 q 0,-4.224 -0.768,-6.912 -0.704,-2.752 -2.624,-4.032 -1.92,-1.344 -5.504,-1.344 -2.112,0 -3.84,0.512 -1.728,0.448 -3.072,1.216 -1.344,0.768 -2.368,1.664 0.64,1.536 0.896,3.456 0.256,1.92 0.256,4.16 v 19.776 h -3.072 v -18.496 q 0,-4.288 -0.704,-6.976 -0.704,-2.688 -2.688,-3.968 -1.92,-1.344 -5.568,-1.344 -1.728,0 -3.392,0.192 -1.664,0.192 -2.88,0.512 -1.216,0.256 -1.728,0.512 v 29.568 z"
         stroke="white" fill="white"
         id="path715" />
      <path
         d="m 459.71655,175.97346 q -5.504,0 -9.088,-1.984 -3.52,-2.048 -5.248,-5.952 -1.728,-3.904 -1.728,-9.536 0,-4.736 1.728,-8.512 1.792,-3.776 4.992,-6.016 3.2,-2.24 7.552,-2.24 4.288,0 7.104,1.92 2.88,1.92 4.352,5.376 1.472,3.456 1.472,8 0,0.576 -0.064,1.216 0,0.576 -0.064,1.088 h -23.872 q 0.192,6.976 3.328,10.432 3.2,3.456 9.664,3.456 2.624,0 4.736,-0.576 2.176,-0.576 3.328,-1.216 l 0.576,2.624 q -1.152,0.704 -3.648,1.344 -2.432,0.576 -5.12,0.576 z m -12.8,-19.2 h 20.736 q 0,-3.968 -1.152,-6.72 -1.152,-2.752 -3.328,-4.16 -2.176,-1.408 -5.184,-1.408 -3.456,0 -5.888,1.792 -2.368,1.728 -3.712,4.544 -1.28,2.752 -1.472,5.952 z"
         stroke="white" fill="white"
         id="path717" />
      <path
         d="m 480.38859,175.46146 v -31.296 q 2.112,-1.024 4.736,-1.664 2.688,-0.64 5.76,-0.64 1.28,0 2.368,0.128 1.152,0.128 2.112,0.32 0.96,0.192 1.6,0.448 l -0.64,2.624 q -0.832,-0.256 -2.368,-0.448 -1.472,-0.256 -3.392,-0.256 -2.112,0 -3.968,0.384 -1.856,0.384 -3.136,0.96 v 29.44 z"
         stroke="white" fill="white"
         id="path719" />
    </g>
</svg>